<svg xmlns="http://www.w3.org/2000/svg" width="18.293" height="16.079" viewBox="0 0 18.293 16.079"><defs><style>.a{fill:#e10023;}</style></defs><path class="a" d="M.535,159.563H14.541a.537.537,0,0,0,.343-.124c.135-.113,3.2-2.753,3.39-8.451H3.233c-.186,5.173-3.013,7.6-3.042,7.628a.537.537,0,0,0,.344.947Z" transform="translate(0 -146.7)"/><path class="a" d="M105.482,32.06H102.8v-.536a.536.536,0,1,0-1.072,0v.536H99.015v-.536a.536.536,0,1,0-1.072,0v.536h-2.68v-.536a.536.536,0,1,0-1.072,0v.536h-2.68a.531.531,0,0,0-.536.536V34.2h15.042V32.6A.531.531,0,0,0,105.482,32.06Z" transform="translate(-87.725 -30.988)"/><path class="a" d="M103.3,301.869a1.613,1.613,0,0,1-1.032.374H90.977v1.608a.536.536,0,0,0,.536.536h13.971a.536.536,0,0,0,.536-.536v-6.008A10.623,10.623,0,0,1,103.3,301.869Z" transform="translate(-87.726 -288.308)"/></svg>