<svg xmlns="http://www.w3.org/2000/svg" xmlns:xlink="http://www.w3.org/1999/xlink" width="54" height="54" viewBox="0 0 54 54"><defs><style>.a{fill:url(#a);}.b{fill:#fff;}</style><linearGradient id="a" x1="0.5" x2="0.5" y2="1" gradientUnits="objectBoundingBox"><stop offset="0" stop-color="#ff1136"/><stop offset="1" stop-color="#e9052a"/></linearGradient></defs><rect class="a" width="54" height="54" rx="10"/><path class="b" d="M30.223,4.722V11.57a1.181,1.181,0,0,1-2.361,0V4.722A2.364,2.364,0,0,0,25.5,2.361H4.722A2.364,2.364,0,0,0,2.361,4.722V11.57A1.181,1.181,0,0,1,0,11.57V4.722A4.728,4.728,0,0,1,4.722,0H25.5A4.728,4.728,0,0,1,30.223,4.722Zm-1.181,11.57a1.18,1.18,0,0,0-1.181,1.181A2.364,2.364,0,0,1,25.5,19.834H13.754a1.181,1.181,0,1,0,0,2.361H25.5a4.728,4.728,0,0,0,4.722-4.722A1.18,1.18,0,0,0,29.042,16.292Zm-13.629-1.2a1.181,1.181,0,0,0,.107,2.356c.036,0,.073,0,.11-.005a5.806,5.806,0,0,0,3.894-2.064,6.614,6.614,0,0,0,1.548-4.287,6.186,6.186,0,0,0-5.962-6.375A6.186,6.186,0,0,0,9.149,11.09a6.93,6.93,0,0,0,.046.793,1.181,1.181,0,0,0,2.345-.272,4.54,4.54,0,0,1-.03-.52,3.829,3.829,0,0,1,3.6-4.014,3.829,3.829,0,0,1,3.6,4.014,3.889,3.889,0,0,1-3.3,4Zm10.264-4.052A1.181,1.181,0,1,0,24.5,12.219,1.18,1.18,0,0,0,25.677,11.038Zm-18.771,0a1.181,1.181,0,1,0-1.181,1.181A1.18,1.18,0,0,0,6.906,11.038Zm2.125,8.8H1.181a1.181,1.181,0,0,0,0,2.361H9.031a1.181,1.181,0,1,0,0-2.361ZM10.8,15.111H1.181a1.181,1.181,0,0,0,0,2.361H10.8a1.181,1.181,0,0,0,0-2.361ZM7.261,24.556H1.181a1.181,1.181,0,0,0,0,2.361h6.08a1.181,1.181,0,1,0,0-2.361Zm0,0" transform="translate(11.889 13.542)"/></svg>