<svg xmlns="http://www.w3.org/2000/svg" width="54" height="54" viewBox="0 0 54 54"><defs><style>.a{fill:#ffffff;}</style></defs><g transform="translate(-0.25 -28.847)"><path class="a" d="M55.36,55.716,44.922,29.508a1.044,1.044,0,0,0-.561-.577,1.06,1.06,0,0,0-.805-.011L1.232,45.774a1.029,1.029,0,0,0-.411.33l-.012.01a1.038,1.038,0,0,0-.56.914V75.223A1.052,1.052,0,0,0,1.3,76.273H46.85A1.052,1.052,0,0,0,47.9,75.223V59.8l6.867-2.735A1.055,1.055,0,0,0,55.36,55.716Zm-8.51-9.741h-.04l-2.3-5.784-.013-.027a.848.848,0,0,0-.074-.11l-.006-.013a1.046,1.046,0,0,0-1.1-.808A6.494,6.494,0,0,1,37.6,36.766a1.043,1.043,0,0,0-1.345-.231l-.013,0a1.211,1.211,0,0,0-.132.023l-.013,0L13.926,45.393a1.046,1.046,0,0,0-.578.562l-.009.021H6.408L43.359,31.262,53.013,55.5,47.9,57.543V47.026A1.052,1.052,0,0,0,46.85,45.975Zm-10.371-7.3.016.017a8.636,8.636,0,0,0,6.193,2.67h.023l1.838,4.623H18.134Zm9.32,9.405v26.1H2.351v-26.1Z"/><path class="a" d="M32.282,202.486l0,.007v.008A1.044,1.044,0,0,0,33,203.667a6.5,6.5,0,0,1,4.4,4.4,1.067,1.067,0,0,0,1,.749h.016a.958.958,0,0,0,.146-.023l.008,0,.009,0a1.023,1.023,0,0,0,.125.027l.014,0h26l.049,0a.905.905,0,0,0,.1-.022l.008,0,.008,0a.975.975,0,0,0,1.177-.707l0-.018a6.5,6.5,0,0,1,4.4-4.4,1.038,1.038,0,0,0,.717-1.154V202.5l0-.007a1.072,1.072,0,0,0,.027-.13l0-8.687,0-.032a.968.968,0,0,0-.028-.129l0-.007V193.5a1.041,1.041,0,0,0-.723-1.156,6.487,6.487,0,0,1-4.4-4.4,1.039,1.039,0,0,0-1.163-.717H64.9l-.007,0a1.055,1.055,0,0,0-.132-.027l-.012,0H38.735l-.032,0a.994.994,0,0,0-.13.028l-.007,0h-.007a1.043,1.043,0,0,0-1.156.723,6.493,6.493,0,0,1-4.4,4.4,1.039,1.039,0,0,0-.717,1.154v.007l0,.007a1.047,1.047,0,0,0-.026.132l0,8.686,0,.033A.975.975,0,0,0,32.282,202.486Zm6.853-13.168.009-.021H64.335l.009.021a8.616,8.616,0,0,0,4.761,4.759l.021.008v7.841l-.021.009a8.624,8.624,0,0,0-4.76,4.76l-.008.021H39.143l-.009-.021a8.624,8.624,0,0,0-4.76-4.759l-.021-.009v-7.841l.021-.008A8.613,8.613,0,0,0,39.135,189.318Z" transform="translate(-27.665 -136.882)"/><path class="a" d="M134.723,232.141h0a6.473,6.473,0,1,0-6.473-6.473A6.48,6.48,0,0,0,134.723,232.141Zm0-10.845a4.372,4.372,0,1,1-4.372,4.372A4.377,4.377,0,0,1,134.723,221.3Z" transform="translate(-110.648 -164.544)"/><path class="a" d="M76.114,256.923a1.864,1.864,0,1,0-1.864-1.864A1.866,1.866,0,0,0,76.114,256.923Zm0-1.559a.305.305,0,1,1,.305-.305A.305.305,0,0,1,76.114,255.364Z" transform="translate(-63.968 -193.935)"/><path class="a" d="M252.114,256.923a1.864,1.864,0,1,0-1.864-1.864A1.866,1.866,0,0,0,252.114,256.923Zm0-1.559a.305.305,0,1,1,.305-.305A.305.305,0,0,1,252.114,255.364Z" transform="translate(-216.109 -193.935)"/></g></svg>