<svg xmlns="http://www.w3.org/2000/svg" width="52.112" height="52.111" viewBox="0 0 52.112 52.111"><defs><style>.a{fill:#e10023;}</style></defs><g transform="translate(-2 -2.001)"><path class="a" d="M52.819,3.294a4.408,4.408,0,0,0-6.237,0L29.3,20.573H6.41A4.415,4.415,0,0,0,2,24.984V49.7a4.415,4.415,0,0,0,4.41,4.41H49.693A4.415,4.415,0,0,0,54.1,49.7V24.984a4.415,4.415,0,0,0-4.41-4.41H41.776L52.819,9.531a4.408,4.408,0,0,0,0-6.237Zm-22.335,20.6,1.735,1.735-3.471,1.735Zm19.21-.654a1.746,1.746,0,0,1,1.744,1.744V49.7a1.746,1.746,0,0,1-1.744,1.744H6.41A1.746,1.746,0,0,1,4.667,49.7V24.984A1.746,1.746,0,0,1,6.41,23.24H27.829l-3.255,6.51a1.333,1.333,0,0,0,1.789,1.789l8.711-4.356a1.4,1.4,0,0,0,.339-.245l3.7-3.7Zm-15.224.869L32,21.643,45.349,8.3l2.466,2.466ZM50.933,7.645,49.7,8.878,47.234,6.412l1.233-1.233a1.744,1.744,0,1,1,2.466,2.466Z" transform="translate(0)"/><path class="a" d="M72.658,243.041H63.324a1.333,1.333,0,0,0,0,2.667h9.334a1.333,1.333,0,1,0,0-2.667Z" transform="translate(-53.837 -214.314)"/><path class="a" d="M100.453,333.028H63.324a1.333,1.333,0,1,0,0,2.667h37.129a1.333,1.333,0,1,0,0-2.667Z" transform="translate(-53.837 -297.07)"/><path class="a" d="M100.453,424.014H63.324a1.333,1.333,0,1,0,0,2.667h37.129a1.333,1.333,0,1,0,0-2.667Z" transform="translate(-53.837 -380.722)"/></g></svg>