<svg xmlns="http://www.w3.org/2000/svg" width="50.682" height="54.134" viewBox="0 0 50.682 54.134"><defs><style>.a{fill:#e10023;}</style></defs><g transform="translate(0 0)"><path class="a" d="M144.7,102.135h-.647V95.449a1.078,1.078,0,0,0-1.078-1.078h-9.688a16.608,16.608,0,1,0-14.682,8.842c.287,0,.575-.009.863-.024V112.7A4.534,4.534,0,0,0,124,117.232h18.979a1.078,1.078,0,0,0,1.078-1.078v-6.686h.647a1.078,1.078,0,0,0,1.078-1.078v-5.176A1.078,1.078,0,0,0,144.7,102.135Zm-5.176,5.176a.648.648,0,0,1-.647-.647v-1.725a.648.648,0,0,1,.647-.647h4.1v3.019ZM125.7,94.371q.181-.738.327-1.51h5.613a14.438,14.438,0,0,1-.84,1.51ZM119.469,98.9v1.973a2.212,2.212,0,0,1-.863.183c-2.012,0-4.192-3.168-5.221-8.2h10.44q-.162.793-.366,1.543A4.535,4.535,0,0,0,119.469,98.9ZM104.157,86.607a14.408,14.408,0,0,1,.593-4.1h6.113a35.681,35.681,0,0,0,0,8.2H104.75A14.408,14.408,0,0,1,104.157,86.607Zm8.627,0a33.029,33.029,0,0,1,.249-4.1h11.148a33.691,33.691,0,0,1,0,8.2H113.033A33.029,33.029,0,0,1,112.784,86.607Zm5.823-14.45c2.012,0,4.192,3.168,5.221,8.2H113.386C114.415,75.325,116.594,72.157,118.607,72.157Zm14.45,14.45a14.47,14.47,0,0,1-.591,4.1h-6.114a35.751,35.751,0,0,0,0-8.2h6.113A14.409,14.409,0,0,1,133.057,86.607Zm-1.425-6.254h-5.607a23.521,23.521,0,0,0-1.551-5.164,13.906,13.906,0,0,0-1.262-2.28A14.527,14.527,0,0,1,131.632,80.352ZM114,72.909a13.908,13.908,0,0,0-1.262,2.28,23.527,23.527,0,0,0-1.551,5.164h-5.607A14.527,14.527,0,0,1,114,72.909Zm-8.42,19.952h5.607a23.529,23.529,0,0,0,1.551,5.164A13.908,13.908,0,0,0,114,100.3,14.527,14.527,0,0,1,105.582,92.861ZM141.9,115.075H124a2.375,2.375,0,0,1-2.372-2.372V98.9A2.375,2.375,0,0,1,124,96.527h17.9v5.607h-2.372a2.807,2.807,0,0,0-2.8,2.8v1.725a2.807,2.807,0,0,0,2.8,2.8H141.9Z" transform="translate(-95.099 -63.098)"/><path class="a" d="M56.581,50.285A21.353,21.353,0,1,1,82.84,28.606l-1.59-1.589a1.078,1.078,0,0,0-1.525,1.525l3.451,3.451a1.078,1.078,0,0,0,1.525,0l3.451-3.451a1.078,1.078,0,0,0-1.525-1.525L85,28.644a23.5,23.5,0,1,0-28.915,23.74,1.078,1.078,0,1,0,.5-2.1Z" transform="translate(-38.001 -5.996)"/><path class="a" d="M312.962,358.782h-1.391a1.58,1.58,0,0,0-1.156.48l-.019.02v-1.46h3.388a.862.862,0,0,0,.627-.255.853.853,0,0,0,.285-.656.961.961,0,0,0-.911-.911h-8.473a.962.962,0,0,0-.911.911.853.853,0,0,0,.285.656.862.862,0,0,0,.627.255h3.262v2.351h-.96v-.48a.962.962,0,0,0-.911-.911.853.853,0,0,0-.656.284.862.862,0,0,0-.255.627v4.869a1.617,1.617,0,0,0,.45,1.148l.008.008a1.616,1.616,0,0,0,1.148.45h3.478a.92.92,0,0,0,.911-.911.962.962,0,0,0-.911-.911h-3.262V362h1.175a1.593,1.593,0,0,0,1.131-.454,1.681,1.681,0,0,0,.255-.325,1.661,1.661,0,0,0,.24.321l.008.008a1.616,1.616,0,0,0,1.148.45h.911v-1.127h-.7V360.6h.96v1.871a.885.885,0,0,0,.911.911.862.862,0,0,0,.627-.255.853.853,0,0,0,.285-.656v-2.087a1.626,1.626,0,0,0-1.607-1.607Z" transform="translate(-275.673 -318.257)"/></g></svg>