<svg xmlns="http://www.w3.org/2000/svg" width="186" height="166" viewBox="0 0 186 166"><defs><style>.a{fill:#fff;}.b{fill:#e10023;font-size:15px;font-family:Roboto-Regular, Roboto;letter-spacing:-0.037em;}</style></defs><g transform="translate(-56 -171)"><path class="a" d="M42.988,104.552l.876-.943c.821.732,1.33,1.147,1.51,1.274a3.36,3.36,0,0,0,1.88.566,1.324,1.324,0,0,0,.9-.316.985.985,0,0,0,.388-.819c0-.777-.522-1.161-1.566-1.161-.147,0-.367.01-.648.031s-.5.026-.644.026c-1.414,0-2.115-.54-2.115-1.618a1.446,1.446,0,0,1,.569-1.185,1.915,1.915,0,0,1,1.283-.485h2.241v-.987H41.425v8.03H40.173v-8.03H38.731v7.993H37.479v-3H35.745v.294a2.831,2.831,0,0,1-.884,2.09,2.762,2.762,0,0,1-2.057.893,2.675,2.675,0,0,1-1.98-.875,2.838,2.838,0,0,1-.847-2.029,3.274,3.274,0,0,1,.1-.776l1.231-.016a2.341,2.341,0,0,0-.145.774,1.671,1.671,0,0,0,.492,1.225,1.624,1.624,0,0,0,1.2.5,1.694,1.694,0,0,0,1.215-.511,1.72,1.72,0,0,0,.509-1.225,1.661,1.661,0,0,0-.5-1.225,1.679,1.679,0,0,0-1.205-.5,2.245,2.245,0,0,0-.765.148l-.022-1.253a3.386,3.386,0,0,1,.769-.091,2.841,2.841,0,0,1,1.088.222,1.554,1.554,0,0,0,.5-1.148A1.4,1.4,0,0,0,34,99.355a1.445,1.445,0,0,0-1.06-.417,1.32,1.32,0,0,0-1.049.45,1.7,1.7,0,0,0-.422,1.135L30.31,100.5a2.833,2.833,0,0,1,.761-1.945,2.413,2.413,0,0,1,1.843-.821,2.776,2.776,0,0,1,2.691,2.712,2.808,2.808,0,0,1-.676,1.784,3.91,3.91,0,0,1,.5.7h2.053V98.938H36.314V98.1H50.432v.842H48.941v2.133h-3.39c-.469,0-.7.169-.7.5s.386.5,1.162.5c.1,0,.275-.007.5-.016s.389-.028.5-.028a3.116,3.116,0,0,1,1.866.521,2,2,0,0,1,.824,1.731,2.273,2.273,0,0,1-.673,1.652,2.237,2.237,0,0,1-1.638.665l1.562,1.308-.83.957Zm31.864,1.611a2.683,2.683,0,0,1-.873-1.99V98.938h-.837V98.1h7.7a4.494,4.494,0,0,1,4.072-2.6,4.458,4.458,0,0,1,2.418.692,4.379,4.379,0,0,1,1.655,1.908H107.2v.842h-1.423v8.03h-1.251v-8.03H102.7v8.011h-1.326v-1.627a4.562,4.562,0,0,1-2.879.851,4.507,4.507,0,0,1-2.473-.75,3.9,3.9,0,0,1-1.635-1.94c-.082-.206-.139-.4-.2-.586l1.227-.69.284.369a1.647,1.647,0,0,0,1.111.378,1.985,1.985,0,0,0,2.034-2.048,2.986,2.986,0,0,0-.291-1.176c-.227-.525-.483-.793-.759-.793H92.48v7.993H91.226V98.938H88.894a3.485,3.485,0,0,1-.25,4.1,2.847,2.847,0,0,1-1.994,1.068l2.378,2.827H87.512l-3.733-4.324.931-.828.806.957a1.715,1.715,0,0,0,.794.22,1.619,1.619,0,0,0,1.35-.663,2.568,2.568,0,0,0-.014-2.939,1.627,1.627,0,0,0-1.336-.6,1.293,1.293,0,0,0-1.385,1.093H86.2v.976H83.5l-.015-.331a2.874,2.874,0,0,1,.848-2.058,2.624,2.624,0,0,1,1.972-.875,3.156,3.156,0,0,1,1.175.211,3.119,3.119,0,0,0-2.52-1.177A3.156,3.156,0,0,0,82.2,98.095h1.292v.843H82.057v7.993H80.8V98.938H78.962v3.041a2.29,2.29,0,0,1-.661,1.642,2.18,2.18,0,0,1-1.614.7,1.967,1.967,0,0,1-1.29-.352l-.074.312a1.4,1.4,0,0,0,.461,1.087,1.64,1.64,0,0,0,1.138.431,1.529,1.529,0,0,0,1.131-.448l.024-.033c.212.213.55.57.825.859l-.015.029a2.849,2.849,0,0,1-4.035-.038Zm23.415-1.184a5.036,5.036,0,0,0,1.911-.423c.8-.345,1.2-.772,1.2-1.284V98.938h-1.84a3.776,3.776,0,0,1,.494,1.842,3.435,3.435,0,0,1-.861,2.342,2.857,2.857,0,0,1-2.215.969,3.749,3.749,0,0,1-.839-.111A2.851,2.851,0,0,0,98.267,104.979Zm-23.013-3a.988.988,0,0,0,.383.824,1.374,1.374,0,0,0,.909.316,1.284,1.284,0,0,0,.889-.307,1.037,1.037,0,0,0,.34-.833V98.938h-2.52Zm-65.092,4.181a2.716,2.716,0,0,1-.87-1.99V98.938H8.453V98.1H25.4v.842H23.919v8.01H22.667V101.61H18.719a1.636,1.636,0,0,0-1.248.509,1.834,1.834,0,0,0-.489,1.29,1.749,1.749,0,0,0,.489,1.278,1.628,1.628,0,0,0,1.248.514,1.684,1.684,0,0,0,1.264-.523,1.83,1.83,0,0,0,.5-1.3,1.659,1.659,0,0,0-.876-1.515h1.508a2.993,2.993,0,0,1,.455,1.559,2.729,2.729,0,0,1-.859,2.02,2.788,2.788,0,0,1-2.032.857,2.668,2.668,0,0,1-1.969-.857,2.877,2.877,0,0,1,0-4.045,2.7,2.7,0,0,1,2.009-.839h3.948V98.938H14.274v3.041a2.271,2.271,0,0,1-.658,1.642,2.18,2.18,0,0,1-1.612.7,1.965,1.965,0,0,1-1.291-.352l-.072.312a1.388,1.388,0,0,0,.467,1.087,1.6,1.6,0,0,0,1.128.431,1.53,1.53,0,0,0,1.132-.448l.029-.033c.21.213.546.57.819.859l-.019.029a2.787,2.787,0,0,1-2.01.818A2.815,2.815,0,0,1,10.162,106.164Zm.4-4.181a1,1,0,0,0,.386.824,1.4,1.4,0,0,0,.911.316,1.293,1.293,0,0,0,.889-.307,1.044,1.044,0,0,0,.346-.833V98.938H10.561Zm106.588,4.969v-1.605a3.087,3.087,0,0,1-4.2-.145,2.93,2.93,0,0,1-.928-2.158,3.144,3.144,0,0,1,.928-2.234,2.9,2.9,0,0,1,2.169-.966,3.033,3.033,0,0,1,1.692.545v1.731a1.744,1.744,0,0,0-1.654-1.05,2.5,2.5,0,0,0-.489.054l2.125,2.8a1.792,1.792,0,0,0,.361-.754v-4.25h-5.783v-.824h4.749a4.213,4.213,0,0,1-1.186-1.148,7.2,7.2,0,0,0-1.035-1.229,3.932,3.932,0,0,0-2.131-.72l.875-.793a3.454,3.454,0,0,1,2.091.934c.133.14.648.7,1.549,1.7a5.336,5.336,0,0,0-.677-1.826,4.553,4.553,0,0,0-1.434-1.308l1.13-.329a3.455,3.455,0,0,1,1.4,1.491,8.769,8.769,0,0,1,.547,1.661,3.479,3.479,0,0,0,.529,1.287,7.546,7.546,0,0,0-1.225.278H133.11v.842h-6.388v1.452a3.094,3.094,0,0,1,2.019-.733,3.313,3.313,0,0,1,3.282,3.277,3.471,3.471,0,0,1-.954,2.411,2.946,2.946,0,0,1-2.278,1.046,3.164,3.164,0,0,1-1.445-.356v-1.483a1.894,1.894,0,0,0,1.361.571,1.977,1.977,0,0,0,1.464-.651,2.05,2.05,0,0,0,.629-1.485,1.933,1.933,0,0,0-.622-1.43,1.959,1.959,0,0,0-1.436-.614,2.158,2.158,0,0,0-1.342.52,1.612,1.612,0,0,0-.677,1.251v4.233h-1.253v-1.292a3.038,3.038,0,0,1-2.019.735,3.108,3.108,0,0,1-2.309-.978,3.147,3.147,0,0,1-.967-2.321,3.44,3.44,0,0,1,.949-2.393,2.962,2.962,0,0,1,2.274-1.042,3.2,3.2,0,0,1,1.6.445V101.7a1.881,1.881,0,0,0-1.533-.752,1.981,1.981,0,0,0-1.471.621,2.045,2.045,0,0,0-.591,1.478,1.96,1.96,0,0,0,.587,1.478,2.149,2.149,0,0,0,2.906.044,1.89,1.89,0,0,0,.578-1.41V98.938h-6.024v-.019h-1.072v8.033Zm-3.909-3.979a1.954,1.954,0,0,0,.543,1.368,1.691,1.691,0,0,0,1.3.6,1.773,1.773,0,0,0,.854-.225l-2.294-2.937A1.942,1.942,0,0,0,113.241,102.972Zm-49.947,3.975v-3.689H60.947v-.62a3.12,3.12,0,0,1-2.275,1.844l2.867,2.465h-1.9l-4.4-3.825.816-.9c.543.481.839.733.881.762a1.765,1.765,0,0,0,1.049.373,1.869,1.869,0,0,0,1.469-.617A2.189,2.189,0,0,0,60,101.2a2.4,2.4,0,0,0-1.23-2.266H54.651V98.1h6.822a2.919,2.919,0,0,1,1-1.875,3.066,3.066,0,0,1,2.036-.706,2.967,2.967,0,0,1,1.993.706,3,3,0,0,1,1.01,1.875h1.535v.842H67.513v7.994H66.263V98.937H64.516v8.01ZM61.217,101.2a3.714,3.714,0,0,1-.126.99h2.2V98.938H60.389A3.046,3.046,0,0,1,61.217,101.2Zm2.077-4.161a1.859,1.859,0,0,0-.662,1.053h3.716a1.87,1.87,0,0,0-.67-1.07,1.941,1.941,0,0,0-1.182-.387A1.879,1.879,0,0,0,63.294,97.043Zm74.727,9.888V98.938h-.8v-.843h.844a4.5,4.5,0,0,1,4.081-2.6,4.444,4.444,0,0,1,2.409.692,4.292,4.292,0,0,1,1.657,1.908H144.95a3.291,3.291,0,0,0-5.531,0h12.357v.842h-1.4v7.976h-1.253v-5.45a2.079,2.079,0,0,0-1.471.634,2.107,2.107,0,0,0-.61,1.49,2.2,2.2,0,0,0,.186.854l-1.352-.638a4.1,4.1,0,0,1,.172-1.243,1.936,1.936,0,0,0-1.809-1.1,2.126,2.126,0,1,0,0,4.251,1.949,1.949,0,0,0,1.559-.756v1.5a3.243,3.243,0,0,1-1.631.451,3.078,3.078,0,0,1-2.3-1.032,3.315,3.315,0,0,1-.973-2.37,3.077,3.077,0,0,1,.982-2.288,3.2,3.2,0,0,1,2.324-.964,3.143,3.143,0,0,1,2.266.907v.529a3.126,3.126,0,0,1,2.655-1.436V98.938h-9.841v7.993Zm15.169-.286a.938.938,0,0,1-.266-.682.958.958,0,0,1,.257-.681.878.878,0,0,1,.652-.267.944.944,0,0,1,.682.267.924.924,0,0,1-.646,1.612A.965.965,0,0,1,153.191,106.645ZM47.649,98.072a2.757,2.757,0,0,1-.042-3.514,2.089,2.089,0,0,1,3.638,1.011H50.212a1.139,1.139,0,0,0-1.917-.249,1.481,1.481,0,0,0-.007,1.929,1.081,1.081,0,0,0,.872.419v.4ZM118,97.047a.935.935,0,0,1-.266-.681.961.961,0,0,1,.257-.682.882.882,0,0,1,.653-.266.949.949,0,0,1,.682.266.924.924,0,0,1-.646,1.612A.961.961,0,0,1,118,97.047ZM17.442,86.645,5.593,65.388V86.645H0V58.671H7.231L18.557,78.933V58.671H24V86.645Zm84.182,0v-4.9H116a6.809,6.809,0,0,0,3.416-.679,2.638,2.638,0,0,0,1.142-2.493,3.333,3.333,0,0,0-.994-2.658,5.321,5.321,0,0,0-3.211-.761h-6.759c-3.062,0-5.346-.64-6.836-1.913s-2.247-3.337-2.247-6.194c0-2.888.767-5,2.3-6.36s3.937-2.024,7.219-2.024h15.09v4.864H110.959c-3.079,0-4.6,1.262-4.6,3.789a2.711,2.711,0,0,0,1.058,2.335,4.372,4.372,0,0,0,2.7.8h7.607a12.313,12.313,0,0,1,6.422,1.4c1.534.935,2.3,3.078,2.3,6.451A9.5,9.5,0,0,1,124.6,84.3q-1.847,2.332-7.687,2.339Zm-50.733,0q-5.845,0-9.288-3.3T38.165,73.183c0-4.466.965-7.992,2.9-10.6s5.262-3.911,9.981-3.911h9.483v4.6h-9.4c-2.641,0-4.441.874-5.381,2.59a14.076,14.076,0,0,0-1.426,6.807v1.385a11.4,11.4,0,0,0,1.266,5.634q1.259,2.254,5.541,2.25h9.4v4.7Zm109.6,0-2.568-6.756H145.884l-2.394,6.756h-5.927l11.481-27.97H155L166.7,86.641ZM147.725,74.98h8.331l-4.207-11.055Zm-53.02,11.66-2.564-6.756H80.108l-2.415,6.756H71.778l11.49-27.97h5.96l11.681,27.97ZM81.943,74.98H90.27l-4.2-11.055ZM129.836,86.64V58.67h5.921V86.64Zm-101.277,0V58.67H34.49V86.64Zm50.379-65.8,15.81,28.849L79.73,43.452,66.362,50.261ZM58.492,30.682,53.25,24.453l24.1-3.614L56.666,43.218ZM80.554,20.227,110.1,10.844,104.93,21.3l7.76,13Zm-24.493-4.08,8.74-4.765L68.45,4.308l9.2,15ZM80.913,0l6.842,3.839,11.1-1.609L79.7,18.84Z" transform="translate(66 171)"/><g transform="translate(56 294.459)"><rect class="a" width="186" height="43" rx="21.5" transform="translate(0 -0.459)"/><text class="b" transform="translate(93 27.541)"><tspan x="-68.88" y="0">iServe Digital Services</tspan></text></g></g></svg>