<svg xmlns="http://www.w3.org/2000/svg" width="143" height="92.334" viewBox="0 0 143 92.334"><g transform="translate(0 -12.2)"><path d="M132.088,54.314,119.2,49,107.728,54.76l10.782-24.928Zm15.4-13.052-6.647-11.025L145.3,21.36,119.969,29.3ZM120.212,12.2l-1.054,15.97,16.456-14.105-9.525,1.378ZM98.891,25.86l18.524,2.675-7.9-12.727-3.121,6.039ZM96.5,32.912l4.5,5.269L99.418,48.8l17.753-18.969Z" transform="translate(-57.386)" fill="#ffffff"/><g transform="translate(0 61.934)"><path d="M15.929,134.9v17.145L6.2,134.9H0v23.712H4.823V140.575l10.133,18.037h5.634V134.9Z" transform="translate(0 -134.9)" fill="#ffffff"/><rect width="5.107" height="23.712" transform="translate(24.482)" fill="#ffffff"/><path d="M99.972,154.64v3.972H91.7a11.048,11.048,0,0,1-7.944-2.8c-1.986-1.865-2.959-4.742-2.959-8.593a14.993,14.993,0,0,1,2.473-9c1.662-2.229,4.5-3.324,8.552-3.324h8.147v3.891H91.906q-3.4,0-4.621,2.189a11.784,11.784,0,0,0-1.216,5.756v1.175a9.6,9.6,0,0,0,1.094,4.783c.73,1.257,2.31,1.905,4.742,1.905h8.066Z" transform="translate(-48.049 -134.9)" fill="#ffffff"/><path d="M160.674,148.722h7.134l-3.607-9.363Zm6.283-13.822,10.012,23.712h-5.31L169.47,152.9H159.134l-2.067,5.715H152l9.849-23.712Z" transform="translate(-90.39 -134.9)" fill="#ffffff"/><path d="M227.513,144.871a11.031,11.031,0,0,1,5.512,1.175c1.3.811,1.986,2.594,1.986,5.472a8,8,0,0,1-1.581,5.107c-1.054,1.338-3.243,1.986-6.607,1.986H213.692v-4.134h12.322a6.083,6.083,0,0,0,2.918-.567,2.23,2.23,0,0,0,.973-2.108,2.848,2.848,0,0,0-.851-2.27,4.529,4.529,0,0,0-2.756-.649h-5.715c-2.635,0-4.58-.527-5.877-1.621s-1.905-2.837-1.905-5.269.649-4.256,1.986-5.391q1.946-1.7,6.2-1.7h12.93v4.094h-12.16c-2.635,0-3.932,1.054-3.932,3.2a2.324,2.324,0,0,0,.892,1.986,3.812,3.812,0,0,0,2.31.689Z" transform="translate(-126.546 -134.9)" fill="#ffffff"/><rect width="5.067" height="23.712" transform="translate(111.384)" fill="#ffffff"/><path d="M299.855,148.722h7.134l-3.607-9.363ZM306.1,134.9l10.012,23.712H310.8L308.61,152.9H298.274l-2.067,5.715H291.1l9.849-23.712Z" transform="translate(-173.109 -134.9)" fill="#ffffff"/></g><g transform="translate(7.255 91.28)"><path d="M38.664,218.03H32.3v-.73h8.715v.73H39.758V224.8H38.664v-4.54h-3.4a1.225,1.225,0,0,0-1.054.446,1.541,1.541,0,0,0,1.054,2.635,1.5,1.5,0,0,0,1.094-.446A1.566,1.566,0,0,0,36.8,221.8a1.461,1.461,0,0,0-.73-1.3h1.3a2.658,2.658,0,0,1,.365,1.338,2.333,2.333,0,0,1-.73,1.7,2.423,2.423,0,0,1-1.743.73,2.493,2.493,0,0,1-2.432-2.432,2.208,2.208,0,0,1,.73-1.7,2.333,2.333,0,0,1,1.7-.73h3.4Z" transform="translate(-26.463 -213.247)" fill="#ffffff"/><path d="M63.481,221.5h1.054a1.836,1.836,0,0,0-.122.649,1.435,1.435,0,0,0,.405,1.054,1.375,1.375,0,0,0,1.054.405,1.544,1.544,0,0,0,1.054-.446,1.472,1.472,0,0,0,.446-1.054,1.326,1.326,0,0,0-.446-1.054,1.435,1.435,0,0,0-1.054-.405,1.835,1.835,0,0,0-.649.122v-1.054a4.042,4.042,0,0,1,.649-.081,2.574,2.574,0,0,1,.932.2,1.317,1.317,0,0,0,.405-.973,1.246,1.246,0,0,0-1.257-1.257,1.132,1.132,0,0,0-.892.365,1.315,1.315,0,0,0-.365.973H63.684a2.512,2.512,0,0,1,.649-1.662,2.054,2.054,0,0,1,1.581-.689,2.344,2.344,0,0,1,1.621.689,2.2,2.2,0,0,1,.689,1.621,2.385,2.385,0,0,1-.567,1.5,3.061,3.061,0,0,1,.446.567h1.743v-3.364H68.831v-.73h3.2v.73H70.939v6.769H69.885v-2.554h-1.5v.243a2.4,2.4,0,0,1-.77,1.783,2.452,2.452,0,0,1-4.215-1.7c.041-.2.041-.446.081-.649" transform="translate(-44.958 -212.83)" fill="#ffffff"/><path d="M86.359,218.03H85.143v6.81H84.049v-6.81H83.4v-.73h2.959Z" transform="translate(-56.851 -213.247)" fill="#ffffff"/><path d="M96.828,218.149h-1.3v1.824H92.613c-.405,0-.608.122-.608.405s.324.446,1.013.446h.851a2.838,2.838,0,0,1,1.621.446,1.637,1.637,0,0,1,.73,1.459,2.025,2.025,0,0,1-.567,1.419,1.956,1.956,0,0,1-1.419.567l1.338,1.094-.73.811-4.418-3.648.73-.811c.73.608,1.135.973,1.3,1.094a2.923,2.923,0,0,0,1.621.486,1.07,1.07,0,0,0,.77-.284.866.866,0,0,0,.324-.689q0-.973-1.338-.973a3.309,3.309,0,0,0-.567.041c-.243,0-.446.041-.567.041-1.216,0-1.824-.446-1.824-1.378a1.285,1.285,0,0,1,.486-1.013,1.6,1.6,0,0,1,1.094-.405h1.905v-.851H90.1v-.73h6.728Z" transform="translate(-60.835 -213.366)" fill="#ffffff"/><path d="M100.067,212.067a2.225,2.225,0,0,1-.567-1.5,2.089,2.089,0,0,1,.527-1.459,1.755,1.755,0,0,1,1.378-.608,1.726,1.726,0,0,1,1.743,1.459h-.892a.972.972,0,0,0-.892-.567.941.941,0,0,0-.77.365,1.239,1.239,0,0,0-.284.811,1.4,1.4,0,0,0,.284.811.921.921,0,0,0,.73.365v.365h-1.257Z" transform="translate(-66.425 -208.014)" fill="#ffffff"/><path d="M123.177,218.03h-2.513a2.535,2.535,0,0,1,.73,1.905,3.085,3.085,0,0,1-.122.851h1.905Zm2.27,0h-1.216V224.8h-1.054v-3.121H121.15v-.527a2.694,2.694,0,0,1-1.946,1.581l2.473,2.067h-1.621l-3.77-3.243.689-.77c.446.405.73.608.77.649a1.607,1.607,0,0,0,.892.324,1.569,1.569,0,0,0,1.257-.527,1.774,1.774,0,0,0,.486-1.3,2,2,0,0,0-1.054-1.905H115.8v-.73h9.687v.73Z" transform="translate(-76.118 -213.247)" fill="#ffffff"/><path d="M134.275,214.089a1.491,1.491,0,0,0-.567-.892,1.774,1.774,0,0,0-1.013-.324,1.681,1.681,0,0,0-1.013.324,1.59,1.59,0,0,0-.567.932l-1.013-.041a2.543,2.543,0,0,1,.851-1.581,2.61,2.61,0,0,1,1.743-.608,2.579,2.579,0,0,1,1.7.608,2.364,2.364,0,0,1,.851,1.581h1.3v.73h-1.3v6.769h-1.094v-6.769H133.14v-.73Z" transform="translate(-84.622 -210.036)" fill="#ffffff"/><path d="M175.947,214.029a2.816,2.816,0,0,0-4.742,0H172.3v.73h-1.216v6.769h-1.094v-6.769H169.3v-.73h.73a3.939,3.939,0,0,1,1.419-1.621,3.642,3.642,0,0,1,2.067-.608A3.732,3.732,0,0,1,177,213.989h-1.054Z" transform="translate(-107.933 -209.976)" fill="#ffffff"/><path d="M185.777,217.257h-1.216v6.769h-1.094v-6.769h-3.2v-.73h5.512Zm-6.242,4.378,2.027,2.391h-1.3l-3.2-3.689.811-.689.689.811a1.432,1.432,0,0,0,.689.162,1.385,1.385,0,0,0,1.175-.567,2.025,2.025,0,0,0,.405-1.257,1.805,1.805,0,0,0-.405-1.257,1.446,1.446,0,0,0-1.135-.527,1.084,1.084,0,0,0-1.175.932h1.094v.811H176.9v-.284a2.357,2.357,0,0,1,.73-1.743,2.333,2.333,0,0,1,1.7-.73,2.508,2.508,0,0,1,1.905.811,2.72,2.72,0,0,1,.77,1.986,2.865,2.865,0,0,1-.689,1.865,2.644,2.644,0,0,1-1.783.973" transform="translate(-112.453 -212.474)" fill="#ffffff"/><path d="M222.618,218.03H221.4v6.81h-1.094v-6.81H219.7v-.73h2.918Z" transform="translate(-137.905 -213.247)" fill="#ffffff"/><path d="M239.691,223.053l-1.986-2.513a1.52,1.52,0,0,0-.324,1.013,1.692,1.692,0,0,0,.486,1.175,1.49,1.49,0,0,0,1.094.527,1.651,1.651,0,0,0,.73-.2m3.283-4.9h-1.216v6.81h-1.013V223.62a2.683,2.683,0,0,1-4.418-1.946,2.707,2.707,0,0,1,.811-1.905,2.5,2.5,0,0,1,3.324-.324V220.9a1.453,1.453,0,0,0-1.419-.892,1.378,1.378,0,0,0-.405.041l1.824,2.391a1.8,1.8,0,0,0,.324-.649v-3.607H235.8V217.5h7.215v.649Z" transform="translate(-147.479 -213.366)" fill="#ffffff"/><path d="M240.451,211.434a3.461,3.461,0,0,1-1.135-1.054,5.615,5.615,0,0,0-.892-1.054,3.587,3.587,0,0,0-1.824-.608l.77-.689a2.727,2.727,0,0,1,1.783.811c.122.122.567.608,1.338,1.419a4.229,4.229,0,0,0-.567-1.54,4.731,4.731,0,0,0-1.216-1.135l.973-.284a3.028,3.028,0,0,1,1.216,1.257,9.09,9.09,0,0,1,.486,1.419,2.9,2.9,0,0,0,.446,1.094c-.405.081-.811.2-1.378.365" transform="translate(-147.955 -207.3)" fill="#ffffff"/><path d="M250.781,212.511a.7.7,0,0,1-.77.77.8.8,0,0,1-.567-.2.736.736,0,0,1-.243-.567.879.879,0,0,1,.2-.567.736.736,0,0,1,.567-.243.68.68,0,0,1,.567.243.8.8,0,0,1,.243.567" transform="translate(-155.447 -209.917)" fill="#ffffff"/><path d="M264.633,217.911h-5.472v1.216a2.766,2.766,0,0,1,1.743-.608,2.823,2.823,0,0,1,1.986.811,2.551,2.551,0,0,1,.851,1.946,3.092,3.092,0,0,1-.811,2.067,2.457,2.457,0,0,1-1.946.892,2.894,2.894,0,0,1-1.256-.324v-1.257a1.623,1.623,0,0,0,1.175.486,1.728,1.728,0,0,0,1.257-.567,1.685,1.685,0,0,0,.527-1.257,1.8,1.8,0,0,0-1.743-1.743,1.826,1.826,0,0,0-1.135.446,1.329,1.329,0,0,0-.568,1.054v3.567h-1.094v-1.094a2.757,2.757,0,0,1-3.729-.162,2.661,2.661,0,0,1-.811-1.986,2.919,2.919,0,0,1,.811-2.027,2.457,2.457,0,0,1,1.946-.892,2.806,2.806,0,0,1,1.378.365v1.338a1.575,1.575,0,0,0-1.3-.649,1.625,1.625,0,0,0-1.257.527,1.685,1.685,0,0,0-.527,1.257,1.625,1.625,0,0,0,.527,1.257,1.679,1.679,0,0,0,1.257.486,1.794,1.794,0,0,0,1.216-.446,1.65,1.65,0,0,0,.486-1.216V217.83H253v-.73h11.714v.811Z" transform="translate(-157.707 -213.128)" fill="#ffffff"/><path d="M297.047,214.029a2.816,2.816,0,0,0-4.742,0H293.4v.73h-1.216v6.769h-1.094v-6.769H290.4v-.73h.73a3.939,3.939,0,0,1,1.419-1.621,3.737,3.737,0,0,1,2.067-.608,3.732,3.732,0,0,1,3.486,2.189h-1.054Z" transform="translate(-179.948 -209.976)" fill="#ffffff"/><path d="M306.749,217.97h-1.216v6.769H304.48v-4.621a1.853,1.853,0,0,0-1.257.527,1.685,1.685,0,0,0-.527,1.257,1.59,1.59,0,0,0,.162.73l-1.175-.527a2.745,2.745,0,0,1,.162-1.054,1.657,1.657,0,0,0-1.54-.932,1.824,1.824,0,1,0,0,3.648,1.648,1.648,0,0,0,1.338-.649v1.257a2.958,2.958,0,0,1-1.419.365,2.6,2.6,0,0,1-1.986-.892,2.789,2.789,0,0,1-.851-2.027,2.551,2.551,0,0,1,.851-1.946,2.823,2.823,0,0,1,1.986-.811,2.758,2.758,0,0,1,1.946.77v.446a2.609,2.609,0,0,1,2.27-1.216V217.93H296.9v-.73h9.809v.77Z" transform="translate(-183.813 -213.187)" fill="#ffffff"/><path d="M322.721,232.67c0,.486-.243.77-.811.77a.879.879,0,0,1-.567-.2.784.784,0,0,1,0-1.135.706.706,0,0,1,.567-.2.68.68,0,0,1,.567.243.654.654,0,0,1,.243.527" transform="translate(-198.204 -221.929)" fill="#ffffff"/><path d="M21.872,220.5a.835.835,0,0,1-.284.689,1.169,1.169,0,0,1-.77.243,1.009,1.009,0,0,1-.77-.284.866.866,0,0,1-.324-.689V217.87h2.189V220.5ZM17.9,217.181v.73h.73v4.418a2.333,2.333,0,0,0,.73,1.7,2.423,2.423,0,0,0,1.743.73,2.558,2.558,0,0,0,1.743-.689v-.041c-.243-.243-.527-.527-.689-.73v.041a1.315,1.315,0,0,1-.973.365,1.381,1.381,0,0,1-.973-.365,1.121,1.121,0,0,1-.405-.932.586.586,0,0,1,.081-.284,1.681,1.681,0,0,0,1.094.284,1.93,1.93,0,0,0,1.378-.567,2.025,2.025,0,0,0,.567-1.419V217.83h1.216v-.73H17.9Z" transform="translate(-17.9 -213.128)" fill="#ffffff"/><path d="M158.772,220.5a.835.835,0,0,1-.284.689,1.169,1.169,0,0,1-.77.243,1.009,1.009,0,0,1-.77-.284.762.762,0,0,1-.324-.689V217.87h2.148Zm-3.972-3.324v.73h.73v4.418a2.229,2.229,0,0,0,.77,1.7,2.423,2.423,0,0,0,1.743.73,2.558,2.558,0,0,0,1.743-.689v-.041l-.73-.73v.041a1.315,1.315,0,0,1-.973.365,1.452,1.452,0,0,1-.973-.365,1.121,1.121,0,0,1-.405-.932.586.586,0,0,1,.081-.284,1.681,1.681,0,0,0,1.094.284,1.93,1.93,0,0,0,1.378-.567,2.025,2.025,0,0,0,.567-1.419V217.83h1.216v-.73H154.8Z" transform="translate(-99.311 -213.128)" fill="#ffffff"/><path d="M204.491,221.678c0,.446-.324.811-1.013,1.094a4.22,4.22,0,0,1-1.621.365,2.424,2.424,0,0,1-1.824-.851,4.467,4.467,0,0,0,.73.081,2.508,2.508,0,0,0,1.905-.811,2.933,2.933,0,0,0,.73-1.986,3.279,3.279,0,0,0-.405-1.581h1.581v3.689ZM197.6,217.3v.73h3.81c.243,0,.446.243.649.689a2.79,2.79,0,0,1,.243,1.013,1.744,1.744,0,0,1-.486,1.257,1.679,1.679,0,0,1-1.257.486,1.445,1.445,0,0,1-.932-.324.976.976,0,0,1-.243-.324l-1.054.567a2.286,2.286,0,0,0,.162.486,3.411,3.411,0,0,0,1.378,1.662,3.811,3.811,0,0,0,2.148.649,3.981,3.981,0,0,0,2.473-.73v1.378h1.135V218.07h1.3v-.73H197.6Z" transform="translate(-124.762 -213.247)" fill="#ffffff"/></g></g></svg>