<svg enable-background="new 0 0 24 24" fill="#E20225" height="512" viewBox="0 0 24 24" width="512" xmlns="http://www.w3.org/2000/svg"><path d="m21.5 20h-19c-1.378 0-2.5-1.121-2.5-2.5v-11c0-1.379 1.122-2.5 2.5-2.5h2.67c.276 0 .5.224.5.5s-.224.5-.5.5h-2.67c-.827 0-1.5.673-1.5 1.5v11c0 .827.673 1.5 1.5 1.5h19c.827 0 1.5-.673 1.5-1.5v-11c0-.827-.673-1.5-1.5-1.5h-4.67c-.276 0-.5-.224-.5-.5s.224-.5.5-.5h4.67c1.378 0 2.5 1.121 2.5 2.5v11c0 1.379-1.122 2.5-2.5 2.5z"/><path d="m3.394 12.606c-.131 0-.259-.052-.354-.146-.118-.118-.169-.288-.137-.451l.707-3.535c.02-.098.067-.187.137-.256l7.778-7.778c.565-.566 1.555-.566 2.121 0l1.414 1.414c.585.585.585 1.536 0 2.121l-7.778 7.778c-.07.07-.159.117-.255.137l-3.535.707c-.033.007-.066.009-.098.009zm1.167-3.789-.53 2.651 2.651-.53 7.671-7.671c.195-.195.195-.512 0-.707l-1.414-1.414c-.19-.19-.519-.188-.707 0zm2.368 2.582h.01z"/><path d="m20.5 10h-6c-.276 0-.5-.224-.5-.5s.224-.5.5-.5h6c.276 0 .5.224.5.5s-.224.5-.5.5z"/><path d="m20.5 15h-17c-.276 0-.5-.224-.5-.5s.224-.5.5-.5h17c.276 0 .5.224.5.5s-.224.5-.5.5z"/></svg>