<svg xmlns="http://www.w3.org/2000/svg" width="54" height="54" viewBox="0 0 54 54"><defs><style>.a{fill:#e10023;}.b{fill:#fff;}</style></defs><g transform="translate(-21 -15)"><circle class="a" cx="27" cy="27" r="27" transform="translate(21 15)"/><g transform="translate(-41.815 27.755)"><path class="b" d="M319.2,8.787v5.79h5.79Z" transform="translate(-225.526 -8.296)"/><path class="b" d="M92.836,7.957A.838.838,0,0,1,92,7.119V0H81.171a.838.838,0,0,0-.838.838V27.757a.838.838,0,0,0,.838.838H99.117a.838.838,0,0,0,.838-.838V7.957ZM88.349,19.622H84.76a.838.838,0,1,1,0-1.675h3.589a.838.838,0,0,1,0,1.675Zm7.771,3.344-.9.9a.838.838,0,0,1-1.185,0l-1.2-1.2-.3.3a.838.838,0,0,1-1.185-1.185l.9-.9a.838.838,0,0,1,1.185,0l1.2,1.2.3-.3a.838.838,0,0,1,1.185,1.185Zm-.592-6.933H84.76a.838.838,0,0,1,0-1.675H95.528a.838.838,0,0,1,0,1.675Zm0-3.589H84.76a.838.838,0,0,1,0-1.675H95.528a.838.838,0,0,1,0,1.675Z"/><path class="b" d="M92.836,7.957A.838.838,0,0,1,92,7.119V0H81.171a.838.838,0,0,0-.838.838V27.757a.838.838,0,0,0,.838.838H99.117a.838.838,0,0,0,.838-.838V7.957ZM88.349,19.622H84.76a.838.838,0,1,1,0-1.675h3.589a.838.838,0,0,1,0,1.675Zm7.771,3.344-.9.9a.838.838,0,0,1-1.185,0l-1.2-1.2-.3.3a.838.838,0,0,1-1.185-1.185l.9-.9a.838.838,0,0,1,1.185,0l1.2,1.2.3-.3a.838.838,0,0,1,1.185,1.185Zm-.592-6.933H84.76a.838.838,0,0,1,0-1.675H95.528a.838.838,0,0,1,0,1.675Zm0-3.589H84.76a.838.838,0,0,1,0-1.675H95.528a.838.838,0,0,1,0,1.675Z"/><path class="b" d="M92.836,7.957A.838.838,0,0,1,92,7.119V0H81.171a.838.838,0,0,0-.838.838V27.757a.838.838,0,0,0,.838.838H99.117a.838.838,0,0,0,.838-.838V7.957ZM88.349,19.622H84.76a.838.838,0,1,1,0-1.675h3.589a.838.838,0,0,1,0,1.675Zm7.771,3.344-.9.9a.838.838,0,0,1-1.185,0l-1.2-1.2-.3.3a.838.838,0,0,1-1.185-1.185l.9-.9a.838.838,0,0,1,1.185,0l1.2,1.2.3-.3a.838.838,0,0,1,1.185,1.185Zm-.592-6.933H84.76a.838.838,0,0,1,0-1.675H95.528a.838.838,0,0,1,0,1.675Zm0-3.589H84.76a.838.838,0,0,1,0-1.675H95.528a.838.838,0,0,1,0,1.675Z"/><rect class="a" width="4.749" height="1.52" rx="0.76" transform="translate(84.18 7.385)"/></g></g></svg>