<svg xmlns="http://www.w3.org/2000/svg" width="54" height="54" viewBox="0 0 54 54"><defs><style>.a{fill:#e10023;}.b{fill:#fff;}</style></defs><g transform="translate(-21 -15)"><circle class="a" cx="27" cy="27" r="27" transform="translate(21 15)"/><g transform="translate(-62.62 27)"><path class="b" d="M117.9,0h-.788l-1.735,3.472a.876.876,0,0,1-.784.484h-7.912a.876.876,0,0,1-.784-.484L104.159,0h-.787a1.752,1.752,0,0,0-1.752,1.752V28.146a1.752,1.752,0,0,0,1.752,1.752H117.9a1.752,1.752,0,0,0,1.752-1.752V1.752A1.752,1.752,0,0,0,117.9,0ZM106.485,8.6a.546.546,0,0,1,.421-.192h7.457a.658.658,0,0,1,.612.612.567.567,0,0,1-.191.44.573.573,0,0,1-.421.172h-3.173v2.448a1.208,1.208,0,0,1,1.224-1.225h1.224a1.243,1.243,0,0,1,1.225,1.225v1.836a.565.565,0,0,1-.192.44.571.571,0,0,1-.421.172.59.59,0,0,1-.612-.612V12.083h-1.224V12.7h.612v.612h-.612a1.178,1.178,0,0,1-1.224-1.224,1.208,1.208,0,0,1-1.224,1.224h-1.225v2.448h3.06a.658.658,0,0,1,.612.613.566.566,0,0,1-.191.44.575.575,0,0,1-.421.172h-3.06a1.179,1.179,0,0,1-1.224-1.225V11.471a.572.572,0,0,1,.172-.421.565.565,0,0,1,.44-.192.658.658,0,0,1,.612.613v.612h1.225V9.635h-3.06a.572.572,0,0,1-.421-.172.565.565,0,0,1-.191-.44A.545.545,0,0,1,106.485,8.6Zm10.959,18.215a.876.876,0,0,1-.876.876H104.7a.876.876,0,0,1-.876-.876V22.861a.876.876,0,0,1,.876-.876h11.868a.876.876,0,0,1,.876.876Z"/><path class="b" d="M186.578,2.2l1.1-2.2h-9.034l1.1,2.2Z" transform="translate(-72.528)"/><path class="b" d="M169.375,406.5h10.117v2.2H169.375Z" transform="translate(-63.799 -382.763)"/></g></g></svg>