<svg xmlns="http://www.w3.org/2000/svg" width="54" height="54" viewBox="0 0 54 54"><defs><style>.a{fill:#e10023;}.b{fill:#fff;}</style></defs><g transform="translate(-21 -15)"><circle class="a" cx="27" cy="27" r="27" transform="translate(21 15)"/><g transform="translate(34.5 26.074)"><g transform="translate(0 9.64)"><path class="b" d="M24.357,180.826H22.8l-4.7,4.7a.785.785,0,0,1-.2.147L13.24,188a2.347,2.347,0,0,1-3.149-3.148l2.012-4.025H2.347A2.35,2.35,0,0,0,0,183.173v12.57a2.35,2.35,0,0,0,2.347,2.347h22.01a2.35,2.35,0,0,0,2.347-2.347v-12.57A2.35,2.35,0,0,0,24.357,180.826ZM3.912,187.085H8.658a.782.782,0,1,1,0,1.565H3.912a.782.782,0,1,1,0-1.565Zm18.881,7.876H3.912a.782.782,0,1,1,0-1.565H22.793a.782.782,0,1,1,0,1.565Zm0-3.129H3.912a.782.782,0,0,1,0-1.565H22.793a.782.782,0,0,1,0,1.565Z" transform="translate(0 -180.826)"/></g><g transform="translate(22.148 0.219)"><g transform="translate(0 0)"><path class="b" d="M428.457.884a2.4,2.4,0,0,0-3.319,0l-.553.553L427.9,4.756l.553-.553a2.347,2.347,0,0,0,0-3.32Z" transform="translate(-424.585 -0.219)"/></g></g><g transform="translate(11.408 10.442)"><path class="b" d="M220.731,196.2l-1.96,3.922a.783.783,0,0,0,1.05,1.05l3.922-1.96Z" transform="translate(-218.688 -196.204)"/></g><g transform="translate(14.403 2.543)"><path class="b" d="M282.744,44.778l-6.639,6.638,3.32,3.32,6.639-6.639Z" transform="translate(-276.105 -44.778)"/></g></g></g></svg>