<svg xmlns="http://www.w3.org/2000/svg" width="54" height="54" viewBox="0 0 54 54"><defs><style>.a{fill:#e10023;}.b{fill:#fff;}</style></defs><g transform="translate(-21 -15)"><circle class="a" cx="27" cy="27" r="27" transform="translate(21 15)"/><g transform="translate(5.5 28)"><path class="b" d="M30.5,442.816a2.994,2.994,0,0,0,2.991,2.991H45.454a2.994,2.994,0,0,0,2.991-2.991V442H30.5Z" transform="translate(0 -417.966)"/><path class="b" d="M178.9,137.975a.816.816,0,0,0-.816-.816H162.316a.816.816,0,0,0-.816.816v1.631h17.4Z" transform="translate(-123.877 -129.701)"/><path class="b" d="M38.439,20.509a2.45,2.45,0,0,1-2.447-2.447V8.274a2.45,2.45,0,0,1,2.447-2.447H48.444V2.991A2.994,2.994,0,0,0,45.454,0H33.491A2.994,2.994,0,0,0,30.5,2.991V22.4H48.444V20.509ZM38.385,2.5H40.56a.816.816,0,0,1,0,1.631H38.385a.816.816,0,1,1,0-1.631ZM35.122,4.133a.816.816,0,1,1,.816-.816A.816.816,0,0,1,35.122,4.133Z"/><path class="b" d="M161.5,218.684a.816.816,0,0,0,.816.816h15.769a.816.816,0,0,0,.816-.816v-6.525H161.5Zm12.507-3.263h1.631a.816.816,0,1,1,0,1.631h-1.631a.816.816,0,1,1,0-1.631Zm-4.894,0h1.631a.816.816,0,1,1,0,1.631h-1.631a.816.816,0,1,1,0-1.631Z" transform="translate(-123.877 -200.623)"/></g></g></svg>