<svg xmlns="http://www.w3.org/2000/svg" width="54" height="54" viewBox="0 0 54 54"><defs><style>.a{fill:#e10023;}.b{fill:#fff;}</style></defs><g transform="translate(-21 -15)"><circle class="a" cx="27" cy="27" r="27" transform="translate(21 15)"/><g transform="translate(-33.717 27.17)"><g transform="translate(71)"><path class="b" d="M91.565,0H75.122a.87.87,0,0,0-.615.254L71.254,3.507A.87.87,0,0,0,71,4.122v24.67a.869.869,0,0,0,.869.869h19.7a.869.869,0,0,0,.869-.869V.869A.869.869,0,0,0,91.565,0ZM77.6,4.236a.542.542,0,0,1,.418-.19h7.4a.543.543,0,0,1,.418.19.542.542,0,0,1,.189.417.562.562,0,0,1-.189.436.569.569,0,0,1-.418.171H82.269V7.69a1.2,1.2,0,0,1,1.214-1.215H84.7A1.233,1.233,0,0,1,85.912,7.69V9.511a.561.561,0,0,1-.19.436.567.567,0,0,1-.418.171.585.585,0,0,1-.607-.607V7.69H83.483V8.3h.607V8.9h-.607A1.169,1.169,0,0,1,82.269,7.69,1.2,1.2,0,0,1,81.054,8.9H79.84v2.428h3.036a.653.653,0,0,1,.607.608.561.561,0,0,1-.189.436.571.571,0,0,1-.418.171H79.84a1.17,1.17,0,0,1-1.214-1.215V7.083a.568.568,0,0,1,.171-.418.561.561,0,0,1,.436-.19.653.653,0,0,1,.607.608V7.69h1.215V5.261H78.018A.568.568,0,0,1,77.6,5.09a.56.56,0,0,1-.189-.436A.54.54,0,0,1,77.6,4.236ZM88.089,25.489H75.345a.869.869,0,1,1,0-1.738H88.089a.869.869,0,1,1,0,1.738Zm0-3.476H75.345a.869.869,0,1,1,0-1.738H88.089a.869.869,0,1,1,0,1.738Zm0-3.476H83.455a.869.869,0,1,1,0-1.738h4.634a.869.869,0,1,1,0,1.738Z" transform="translate(-71)"/></g></g></g></svg>