<svg xmlns="http://www.w3.org/2000/svg" width="13.771" height="14.556" viewBox="0 0 13.771 14.556"><defs><style>.a{fill:#e10023;}</style></defs><path class="a" d="M-15.057,51.169q.03.911.03,3.022t-.046,3.037a6.442,6.442,0,0,1-.261,1.609,3.834,3.834,0,0,1-.846,1.413,3.576,3.576,0,0,1-1.336.894,5.566,5.566,0,0,1-1.521.276q-.877.048-2.875.049t-2.874-.049a4.8,4.8,0,0,1-1.521-.309,3.25,3.25,0,0,1-1.338-.861,3.814,3.814,0,0,1-.845-1.413,6.438,6.438,0,0,1-.262-1.609q-.045-.925-.046-3.037t.046-3.037a6.426,6.426,0,0,1,.262-1.608,3.808,3.808,0,0,1,.845-1.414,3.57,3.57,0,0,1,1.338-.894,5.556,5.556,0,0,1,1.521-.276q.875-.048,2.874-.049t2.875.049a5.565,5.565,0,0,1,1.521.276,3.575,3.575,0,0,1,1.336.894,3.828,3.828,0,0,1,.846,1.414A7.015,7.015,0,0,1-15.057,51.169Zm-1.476,7.311a7.251,7.251,0,0,0,.245-1.755q.031-.715.031-2.014v-1.04q0-1.333-.031-2.014a6.9,6.9,0,0,0-.245-1.755,2.287,2.287,0,0,0-1.322-1.4,5.834,5.834,0,0,0-1.66-.261q-.675-.033-1.906-.032H-22.4q-1.23,0-1.906.032a6.127,6.127,0,0,0-1.66.261,2.281,2.281,0,0,0-1.321,1.4,6.827,6.827,0,0,0-.247,1.755q-.031.715-.03,2.014v1.04q0,1.3.03,2.014a7.172,7.172,0,0,0,.247,1.755,2.4,2.4,0,0,0,1.321,1.4,6.2,6.2,0,0,0,1.66.259q.677.033,1.906.033h.984q1.261,0,1.906-.033a5.9,5.9,0,0,0,1.66-.259A2.4,2.4,0,0,0-16.532,58.48Zm-5.38-8.025a3.3,3.3,0,0,1,1.768.5,3.648,3.648,0,0,1,1.291,1.364,3.8,3.8,0,0,1,.476,1.869,3.8,3.8,0,0,1-.476,1.869,3.648,3.648,0,0,1-1.291,1.364,3.3,3.3,0,0,1-1.768.5,3.307,3.307,0,0,1-1.768-.5,3.648,3.648,0,0,1-1.291-1.364,3.8,3.8,0,0,1-.476-1.869,3.8,3.8,0,0,1,.476-1.869,3.648,3.648,0,0,1,1.291-1.364A3.307,3.307,0,0,1-21.912,50.455Zm0,6.173a2.158,2.158,0,0,0,1.629-.715,2.414,2.414,0,0,0,.677-1.722,2.416,2.416,0,0,0-.677-1.722,2.158,2.158,0,0,0-1.629-.715,2.162,2.162,0,0,0-1.629.715,2.416,2.416,0,0,0-.677,1.722,2.414,2.414,0,0,0,.677,1.722A2.162,2.162,0,0,0-21.912,56.628Zm4.518-6.335a.869.869,0,0,0-.245-.618.775.775,0,0,0-.584-.259.778.778,0,0,0-.585.259.869.869,0,0,0-.245.618.868.868,0,0,0,.245.617.778.778,0,0,0,.585.259.728.728,0,0,0,.568-.259A1.038,1.038,0,0,0-17.394,50.293Z" transform="translate(28.798 -46.913)"/></svg>