<svg xmlns="http://www.w3.org/2000/svg" width="13.771" height="14.556" viewBox="0 0 13.771 14.556"><defs><style>.a{fill:#e10023;}</style></defs><path class="a" d="M-48.181,49.152a1.735,1.735,0,0,1-.492-1.234,1.736,1.736,0,0,1,.492-1.235,1.555,1.555,0,0,1,1.169-.52,1.552,1.552,0,0,1,1.167.52,1.736,1.736,0,0,1,.492,1.235,1.735,1.735,0,0,1-.492,1.234,1.552,1.552,0,0,1-1.167.52A1.555,1.555,0,0,1-48.181,49.152Zm-.277,11.567V51H-45.6v9.715Zm10.7,0V55.975a5.531,5.531,0,0,0-.184-1.69,1.293,1.293,0,0,0-1.322-.876,1.424,1.424,0,0,0-1.384.779,3.807,3.807,0,0,0-.307,1.722v4.809h-2.828V51h2.736v1.332h.03a2.536,2.536,0,0,1,.984-1.072,2.914,2.914,0,0,1,1.722-.52,2.99,2.99,0,0,1,2.8,1.332A6.874,6.874,0,0,1-34.9,55.39v5.329Z" transform="translate(48.673 -46.163)"/></svg>