<svg xmlns="http://www.w3.org/2000/svg" width="15.728" height="16.513" viewBox="0 0 15.728 16.513"><defs><style>.a{fill:#e10023;}</style></defs><path class="a" d="M6.23,46.967a.578.578,0,0,1,.43.259.842.842,0,0,1,.153.483A15.3,15.3,0,0,1,4.877,55.26,14.721,14.721,0,0,1-.256,60.651,13.53,13.53,0,0,1-7.45,62.684a.752.752,0,0,1-.46-.161.62.62,0,0,1-.247-.452l-.737-3.357a.758.758,0,0,1,.06-.516.68.68,0,0,1,.37-.355l3.443-1.549a.757.757,0,0,1,.46-.048.618.618,0,0,1,.4.275l1.506,1.936A10.817,10.817,0,0,0,.558,56.1a11.877,11.877,0,0,0,2.228-3.357L.943,51.13a.77.77,0,0,1-.247-.4.843.843,0,0,1,.031-.5L2.2,46.612a.694.694,0,0,1,.337-.355.662.662,0,0,1,.492-.063Z" transform="translate(8.915 -46.171)"/></svg>