<svg xmlns="http://www.w3.org/2000/svg" width="15.739" height="13.572" viewBox="0 0 15.739 13.572"><defs><style>.a{fill:#e10023;}</style></defs><path class="a" d="M-55.908,51.1a10.149,10.149,0,0,1-1.075,4.535,9.157,9.157,0,0,1-3.1,3.687A8.5,8.5,0,0,1-65.1,60.86a8.589,8.589,0,0,1-4.95-1.533c.226.021.481.032.769.032a6.166,6.166,0,0,0,4.026-1.469,2.894,2.894,0,0,1-1.89-.668,3.415,3.415,0,0,1-1.121-1.68,5.757,5.757,0,0,0,.584.032,3.857,3.857,0,0,0,.86-.1,3.232,3.232,0,0,1-1.844-1.207,3.409,3.409,0,0,1-.738-2.153v-.065a2.92,2.92,0,0,0,1.445.457A3.723,3.723,0,0,1-69,51.268a3.446,3.446,0,0,1-.4-1.647,3.439,3.439,0,0,1,.462-1.714,9.036,9.036,0,0,0,2.935,2.546A8.539,8.539,0,0,0-62.3,51.5a5.087,5.087,0,0,1-.06-.784A3.551,3.551,0,0,1-61.932,49a3.26,3.26,0,0,1,1.167-1.257,2.98,2.98,0,0,1,1.6-.457,2.925,2.925,0,0,1,1.306.294,3.66,3.66,0,0,1,1.061.784,6.362,6.362,0,0,0,2.059-.816,3.37,3.37,0,0,1-1.414,1.892,6.653,6.653,0,0,0,1.844-.554,7.383,7.383,0,0,1-1.629,1.794A2.025,2.025,0,0,1-55.908,51.1Z" transform="translate(70.048 -47.288)"/></svg>